<svg width="200" height="150" viewBox="0 0 200 150" fill="none" xmlns="http://www.w3.org/2000/svg">
<g opacity="0.2">
<mask id="mask0_654_5260" style="mask-type:alpha" maskUnits="userSpaceOnUse" x="0" y="0" width="200" height="150">
<path opacity="0.48" fill-rule="evenodd" clip-rule="evenodd" d="M0 82.8253C0 100.099 6.22724 115.84 16.4746 127.736C28.2306 141.388 45.278 149.971 64.2803 150C72.585 150.012 80.5259 148.38 87.8199 145.401C91.5913 143.861 95.8124 144.037 99.4651 145.863C103.75 148.002 108.548 149.201 113.614 149.201C115.707 149.201 117.756 148.995 119.739 148.603C125.397 147.491 130.547 144.858 134.776 141.128C137.434 138.784 140.838 137.605 144.317 137.609H144.376C155.871 137.609 166.549 133.971 175.414 127.736C183.34 122.169 189.812 114.529 194.124 105.559C197.884 97.7421 200 88.9117 200 79.5658C200 47.5113 175.094 21.5222 144.376 21.5222C141.244 21.5222 138.176 21.7982 135.183 22.3132C127.257 8.92503 113.065 0 96.8743 0C90.0388 0 83.5585 1.5907 77.7578 4.44218C72.2413 7.14514 67.3365 10.9859 63.3243 15.6667C49.7006 15.8933 37.1033 20.5375 26.7929 28.2881C10.5631 40.4813 0 60.3676 0 82.8253Z" fill="url(#paint0_linear_654_5260)"/>
</mask>
<g mask="url(#mask0_654_5260)">
<rect width="200" height="150" fill="#00A76F"/>
</g>
</g>
<path opacity="0.05" d="M122.085 85.913C121.149 87.0266 120.137 87.008 119.534 86.851L119.557 86.2742C119.557 86.2742 122.048 85.1356 121.985 85.3748C121.961 85.4645 122.008 85.68 122.085 85.913Z" fill="#FF5630"/>
<path opacity="0.05" d="M128.913 87.1735C127.323 88.0928 126.39 87.0153 126.173 86.7101C126.306 86.36 126.507 85.792 126.466 85.63C126.406 85.3896 128.894 86.5282 128.894 86.5282L128.913 87.1735Z" fill="#FF5630"/>
<path opacity="0.05" d="M127.209 78.002C127.209 78.002 128.723 77.13 129.053 77.5224C129.383 77.9148 127.209 78.002 127.209 78.002Z" fill="#FF5630"/>
<path opacity="0.05" d="M128.124 78.4814C128.124 78.4814 127.875 78.606 128.424 78.7655C128.973 78.9249 128.124 78.4814 128.124 78.4814Z" fill="#FF5630"/>
<path opacity="0.05" d="M118.971 76.0826C118.92 76.0976 120.231 76.9671 121.414 76.2471C121.409 76.2471 119.266 75.993 118.971 76.0826Z" fill="#FF5630"/>
<path opacity="0.05" d="M121.35 77.7461C121.35 77.7461 120.991 78.4512 120.256 78.5558C119.521 78.6604 121.35 77.7461 121.35 77.7461Z" fill="#FF5630"/>
<path opacity="0.05" d="M126.16 79.2764C126.16 79.2764 127.884 82.0169 127.554 82.6635C127.224 83.31 126.16 79.2764 126.16 79.2764Z" fill="#FF5630"/>
<path opacity="0.05" d="M122.759 90.1738C122.759 90.3271 122.759 90.4703 122.744 90.5887C122.699 91.143 121.335 90.9337 121.335 90.9337C120.089 91.1069 119.641 90.5089 119.492 89.9372C119.446 89.7514 119.423 89.5606 119.424 89.3691C119.423 89.2549 119.431 89.1409 119.446 89.0278V88.9144C119.715 88.8335 120.006 88.8929 120.221 89.0726C120.775 89.5223 121.51 89.1773 121.51 89.1773C121.51 89.1773 122.05 89.2221 122.258 89.4015C122.375 89.5024 122.568 89.2595 122.715 89.0278C122.724 89.1773 122.737 89.4476 122.746 89.7366C122.756 89.8848 122.759 90.0343 122.759 90.1738Z" fill="#FF5630"/>
<path opacity="0.05" d="M120.571 90.1414C120.571 90.1414 120.197 90.5076 119.492 89.9421C119.446 89.7563 119.423 89.5655 119.424 89.374C119.784 89.6481 120.452 90.1414 120.571 90.1414Z" fill="#FF5630"/>
<path opacity="0.05" d="M122.758 90.1738C122.697 90.2213 122.619 90.2412 122.542 90.2289C122.465 90.2167 122.397 90.1733 122.354 90.1091C122.499 89.9985 122.632 89.8733 122.752 89.7354C122.756 89.8848 122.758 90.0343 122.758 90.1738Z" fill="#FF5630"/>
<path opacity="0.05" d="M125.682 90.4298C125.682 90.5843 125.682 90.7276 125.696 90.8447C125.74 91.4003 127.105 91.1897 127.105 91.1897C128.35 91.3641 128.799 90.7662 128.947 90.1932C129.02 89.8958 129.036 89.5871 128.993 89.2838V89.1704C128.724 89.0908 128.433 89.1501 128.217 89.3286C127.663 89.7783 126.929 89.4333 126.929 89.4333C126.929 89.4333 126.39 89.4794 126.181 89.6587C126.064 89.7596 125.871 89.5167 125.726 89.285C125.717 89.4345 125.702 89.7048 125.693 89.9938C125.683 90.1396 125.681 90.2891 125.682 90.4298Z" fill="#FF5630"/>
<path opacity="0.05" d="M127.87 90.395C127.87 90.395 128.244 90.7613 128.948 90.1957C128.995 90.0105 129.018 89.82 129.017 89.6289C128.656 89.9017 127.988 90.395 127.87 90.395Z" fill="#FF5630"/>
<path opacity="0.05" d="M125.682 90.4297C125.743 90.4771 125.821 90.497 125.898 90.4847C125.974 90.4724 126.042 90.4291 126.086 90.3649C125.94 90.2545 125.807 90.1293 125.687 89.9912C125.683 90.1395 125.681 90.2889 125.682 90.4297Z" fill="#FF5630"/>
<g opacity="0.05">
<path d="M133.173 44.2783C133.199 44.221 133.224 44.1637 133.248 44.1076C133.271 44.0516 133.28 44.0204 133.294 43.9756C133.248 44.0742 133.207 44.1752 133.173 44.2783Z" fill="#FF5630"/>
</g>
<path fill-rule="evenodd" clip-rule="evenodd" d="M65.6639 116.442C65.362 116.078 65.2236 115.606 65.2815 115.138L70.7801 70.146L71.236 66.4089C71.3417 65.5489 72.0688 64.9007 72.9351 64.8941L89.041 64.7869C89.5043 64.7841 89.9469 64.5948 90.269 64.2617C90.5911 63.9286 90.7654 63.4799 90.7526 63.0168L90.7464 62.8461C90.7305 62.379 90.905 61.9255 91.2298 61.5894C91.5546 61.2534 92.0019 61.0635 92.4692 61.0635H109.394C110.344 61.0635 111.114 61.8325 111.116 62.7826C111.116 62.86 111.111 62.9374 111.101 63.0143C111.037 63.4992 111.181 63.9888 111.498 64.3609C111.816 64.7331 112.277 64.9528 112.766 64.9651L129.02 65.3799C129.52 65.3922 129.99 65.6214 130.308 66.0079C130.625 66.3944 130.759 66.9 130.674 67.393L122.548 114.855L122.395 115.752C122.357 115.981 122.272 116.2 122.146 116.395L65.6639 116.442Z" fill="#004B50"/>
<rect x="114.715" y="51.5312" width="9.51728" height="32.3027" transform="rotate(34.64 114.715 51.5312)" fill="white"/>
<rect x="115.278" y="52.791" width="6.71903" height="6.71903" transform="rotate(34.804 115.278 52.791)" fill="#FFAB00"/>
<rect opacity="0.5" x="110.957" y="59.4395" width="6.72812" height="6.72812" transform="rotate(34.64 110.957 59.4395)" fill="#FFAB00"/>
<rect opacity="0.3" x="106.338" y="66.1221" width="6.72813" height="6.72813" transform="rotate(34.64 106.338 66.1221)" fill="#FFAB00"/>
<rect x="103.651" y="49.8672" width="9.51729" height="32.1806" transform="rotate(16.29 103.651 49.8672)" fill="white"/>
<rect x="104.851" y="50.7588" width="6.72812" height="6.72812" transform="rotate(16.29 104.851 50.7588)" fill="#FF5630"/>
<rect opacity="0.5" x="102.572" y="58.5557" width="6.72812" height="6.72812" transform="rotate(16.29 102.572 58.5557)" fill="#FF5630"/>
<rect opacity="0.3" x="100.294" y="66.3506" width="6.72813" height="6.72813" transform="rotate(16.29 100.294 66.3506)" fill="#FF5630"/>
<rect x="97.1807" y="50.3545" width="9.51729" height="32.1806" transform="rotate(4.6 97.1807 50.3545)" fill="white"/>
<rect x="98.5303" y="50.9854" width="6.72812" height="6.72812" transform="rotate(4.6 98.5303 50.9854)" fill="#00B8D9"/>
<rect opacity="0.5" x="97.8789" y="59.0801" width="6.72812" height="6.72812" transform="rotate(4.6 97.8789 59.0801)" fill="#00B8D9"/>
<rect opacity="0.3" x="97.2275" y="67.1768" width="6.72812" height="6.72812" transform="rotate(4.6 97.2275 67.1768)" fill="#00B8D9"/>
<rect x="92.9121" y="51.6436" width="9.51728" height="32.1806" transform="rotate(-2.61 92.9121 51.6436)" fill="white"/>
<rect x="94.3301" y="52.0986" width="6.72813" height="6.72812" transform="rotate(-2.61 94.3301 52.0986)" fill="#00A76F"/>
<rect opacity="0.5" x="94.9629" y="59.9551" width="6.73653" height="6.73653" transform="rotate(-2.86241 94.9629 59.9551)" fill="#00A76F"/>
<rect opacity="0.3" x="95.0693" y="68.3271" width="6.72812" height="6.72813" transform="rotate(-2.61 95.0693 68.3271)" fill="#00A76F"/>
<path d="M96.9498 94.053L88.4939 97.3242L76.1351 102.102C75.668 101.23 74.9803 100.051 74.1295 98.6447C71.2021 93.7939 66.3587 86.2486 62.046 79.6176C57.1877 72.1433 53.0059 65.8362 53.0059 65.8362L56.033 64.9642L80.7605 57.7852L96.9498 94.053Z" fill="#F4F6F8"/>
<path opacity="0.1" d="M96.9498 94.053L88.4939 97.3242C83.7701 98.3084 78.9497 98.7514 74.1257 98.6447C71.1983 93.7939 66.355 86.2486 62.0423 79.6176L56.0342 64.9592L80.7604 57.7852L96.9498 94.053Z" fill="black"/>
<path d="M103.24 92.0172C103.24 92.0172 90.104 99.788 70.4914 98.0303L54.8564 59.9113L62.3494 58.6233L88.2529 54.1748L102.952 91.276L103.24 92.0172Z" fill="#00A76F"/>
<path opacity="0.1" d="M102.948 91.2809C99.8544 91.4329 96.2755 91.4179 92.6754 90.9882C88.7788 90.5297 84.8597 89.5855 81.5 87.8539C78.6909 86.4077 76.2892 84.8343 74.1951 82.947C68.7476 78.0476 65.3767 71.0392 62.3496 58.6281L88.2531 54.1797L102.948 91.2809Z" fill="#FF5630"/>
<path d="M112.584 89.1495C112.584 89.1495 102.901 91.0455 93.0452 89.8782C89.1486 89.4198 85.2296 88.4756 81.8699 86.744C79.0608 85.2977 76.6603 83.7244 74.565 81.8371C67.8232 75.7717 64.2629 66.4762 60.5918 47.7045C60.5918 47.7045 76.689 51.5898 92.6067 43.0791C92.6018 43.0853 97.9671 76.5677 112.584 89.1495Z" fill="white"/>
<g opacity="0.3">
<path d="M68.918 54.5957C68.918 54.5957 82.008 53.8557 85.6629 51.0342L86.2173 52.8156C86.2173 52.8156 77.5682 56.6312 68.918 56.6773V54.5957Z" fill="#00A76F"/>
<path d="M68.918 63.3904C68.918 63.3904 81.5919 62.6966 91.1677 58.0712L91.4916 58.8112C91.4916 58.8112 83.8927 63.2472 68.918 64.4082V63.3904Z" fill="#00A76F"/>
<path d="M69.9385 66.8175C69.9385 66.8175 82.6124 66.1236 92.187 61.4983L92.5109 62.2382C92.5109 62.2382 84.912 66.673 69.9385 67.8352V66.8175Z" fill="#00A76F"/>
<path d="M70.9574 70.2494C70.9574 70.2494 83.6313 69.5555 93.2071 64.9302L93.5298 65.6701C93.5298 65.6701 85.9309 70.1061 70.9574 71.2671V70.2494Z" fill="#00A76F"/>
<path d="M71.9775 73.6814C71.9775 73.6814 84.6514 72.9875 94.226 68.3622L94.5499 69.1021C94.5499 69.1021 86.951 73.5381 71.9775 74.6991V73.6814Z" fill="#00A76F"/>
<path d="M72.9963 77.1145C72.9963 77.1145 85.6703 76.4206 95.2461 71.7953L95.5687 72.5352C95.5687 72.5352 87.9699 76.97 72.9963 78.1323V77.1145Z" fill="#00A76F"/>
</g>
<path d="M162.112 119.727C162.112 119.727 156.845 119.41 157.466 123.101C157.466 123.101 157.341 123.752 157.934 124.049C157.934 124.049 157.943 123.775 158.473 123.868C158.663 123.9 158.855 123.909 159.046 123.895C159.305 123.878 159.55 123.777 159.745 123.606C159.745 123.606 161.226 122.995 161.802 120.576C161.802 120.576 162.228 120.047 162.21 119.912L161.322 120.285C161.322 120.285 161.626 120.927 161.387 121.459C161.387 121.459 161.358 120.309 161.188 120.338C161.153 120.338 160.726 120.559 160.726 120.559C160.726 120.559 161.248 121.681 160.85 122.488C160.85 122.488 161 121.111 160.559 120.64L159.936 121.005C159.936 121.005 160.546 122.159 160.133 123.101C160.133 123.101 160.238 121.657 159.804 121.094L159.237 121.536C159.237 121.536 159.811 122.673 159.461 123.454C159.461 123.454 159.415 121.773 159.114 121.646C159.114 121.646 158.615 122.083 158.543 122.269C158.543 122.269 158.935 123.093 158.691 123.529C158.691 123.529 158.542 122.408 158.42 122.408C158.42 122.408 157.921 123.156 157.874 123.654C157.874 123.654 157.895 122.896 158.3 122.332C158.015 122.387 157.752 122.523 157.543 122.725C157.543 122.725 157.62 122.199 158.422 122.154C158.422 122.154 158.831 121.591 158.939 121.556C158.939 121.556 158.142 121.49 157.659 121.704C157.659 121.704 158.085 121.206 159.086 121.434L159.646 120.978C159.646 120.978 158.595 120.834 158.151 120.993C158.151 120.993 158.663 120.554 159.796 120.868L160.405 120.505C160.405 120.505 159.511 120.312 158.978 120.38C158.978 120.38 159.54 120.076 160.585 120.405L161.02 120.209C161.02 120.209 160.364 120.085 160.172 120.06C159.981 120.035 159.969 119.988 159.969 119.988C160.385 119.918 160.812 119.965 161.201 120.125C161.201 120.125 162.127 119.786 162.112 119.727Z" fill="#00A76F"/>
<path d="M164.565 107.543C164.565 107.543 161.596 107.364 161.949 109.445C161.912 109.661 162.018 109.877 162.212 109.98C162.212 109.98 162.218 109.825 162.517 109.877C162.624 109.895 162.732 109.9 162.84 109.892C162.985 109.883 163.123 109.826 163.233 109.73C163.233 109.73 164.068 109.385 164.393 108.021C164.393 108.021 164.634 107.724 164.624 107.648L164.125 107.861C164.125 107.861 164.296 108.223 164.161 108.523C164.161 108.523 164.145 107.874 164.049 107.889C164.029 107.889 163.789 108.014 163.789 108.014C163.789 108.014 164.083 108.637 163.861 109.101C163.861 109.101 163.946 108.325 163.697 108.059L163.344 108.265C163.344 108.265 163.688 108.916 163.455 109.446C163.455 109.446 163.515 108.632 163.269 108.315L162.951 108.564C162.951 108.564 163.273 109.206 163.075 109.646C163.075 109.646 163.049 108.698 162.88 108.627C162.759 108.729 162.65 108.846 162.557 108.974C162.557 108.974 162.779 109.44 162.642 109.686C162.642 109.686 162.557 109.054 162.488 109.052C162.488 109.052 162.209 109.469 162.181 109.755C162.194 109.489 162.277 109.232 162.421 109.008C162.26 109.038 162.111 109.115 161.994 109.23C161.994 109.23 162.037 108.933 162.492 108.908C162.492 108.908 162.723 108.591 162.784 108.571C162.784 108.571 162.334 108.533 162.061 108.654C162.061 108.654 162.302 108.375 162.866 108.502L163.182 108.244C163.182 108.244 162.589 108.163 162.339 108.253C162.339 108.253 162.628 108.004 163.267 108.186L163.611 107.98C163.346 107.922 163.075 107.899 162.805 107.912C162.805 107.912 163.122 107.74 163.71 107.925L163.96 107.816C163.96 107.816 163.586 107.742 163.481 107.731C163.377 107.72 163.367 107.69 163.367 107.69C163.601 107.651 163.842 107.678 164.062 107.767C164.062 107.767 164.575 107.575 164.565 107.543Z" fill="#00A76F"/>
<path d="M147.04 109.349C147.04 109.349 143.455 109.132 143.879 111.645C143.833 111.906 143.962 112.167 144.196 112.29C144.196 112.29 144.196 112.103 144.57 112.166C144.699 112.188 144.83 112.194 144.96 112.184C145.136 112.173 145.303 112.104 145.436 111.988C145.436 111.988 146.443 111.572 146.836 109.925C146.836 109.925 147.126 109.566 147.114 109.473L146.502 109.732C146.502 109.732 146.709 110.168 146.546 110.53C146.546 110.53 146.526 109.748 146.41 109.765C146.386 109.765 146.096 109.917 146.096 109.917C146.096 109.917 146.451 110.677 146.183 111.23C146.183 111.23 146.285 110.293 145.985 109.972L145.559 110.221C145.559 110.221 145.974 111.007 145.692 111.648C145.692 111.648 145.765 110.665 145.469 110.277L145.083 110.579C145.083 110.579 145.474 111.352 145.235 111.884C145.235 111.884 145.205 110.739 145 110.653C145 110.653 144.662 110.951 144.611 111.073C144.611 111.073 144.878 111.635 144.712 111.932C144.712 111.932 144.61 111.169 144.526 111.165C144.526 111.165 144.191 111.671 144.153 112.016C144.169 111.696 144.269 111.386 144.443 111.117C144.249 111.154 144.07 111.247 143.928 111.385C143.928 111.385 143.981 111.027 144.526 110.996C144.526 110.996 144.804 110.612 144.879 110.59C144.879 110.59 144.336 110.544 144.007 110.69C144.007 110.69 144.296 110.353 144.977 110.506L145.358 110.195C145.358 110.195 144.645 110.098 144.341 110.205C144.341 110.205 144.689 109.907 145.462 110.125L145.877 109.876C145.877 109.876 145.268 109.745 144.904 109.793C144.904 109.793 145.287 109.586 145.997 109.81L146.294 109.677C146.294 109.677 145.848 109.59 145.717 109.576C145.586 109.562 145.58 109.526 145.58 109.526C145.863 109.478 146.153 109.51 146.419 109.618C146.419 109.618 147.051 109.388 147.04 109.349Z" fill="#00A76F"/>
<rect x="115.889" y="52.0889" width="21.2607" height="38.0467" rx="4.73723" transform="rotate(-71.99 115.889 52.0889)" fill="white"/>
<g opacity="0.24">
<path d="M130.412 43.1283C130.412 45.2858 128.663 47.0348 126.505 47.0348C124.348 47.0348 122.599 45.2858 122.599 43.1283C122.599 40.9707 124.348 39.2217 126.505 39.2217C128.663 39.2217 130.412 40.9707 130.412 43.1283Z" fill="#00A76F"/>
<path d="M135.852 42.425L136.183 41.4073L152.369 46.6697L152.038 47.6873L135.852 42.425Z" fill="#00A76F"/>
<path d="M135.008 45.0195L135.339 44.0018L143.585 46.6825L143.254 47.7002L135.008 45.0195Z" fill="#00A76F"/>
<path d="M134.163 47.6157L134.494 46.598L147.83 50.9337L147.499 51.9514L134.163 47.6157Z" fill="#00A76F"/>
<path d="M133.32 50.2108L133.651 49.1932L149.837 54.4556L149.506 55.4732L133.32 50.2108Z" fill="#00A76F"/>
</g>
<rect opacity="0.5" x="143.501" y="58.7139" width="2.06914" height="4.71006" transform="rotate(-71.99 143.501 58.7139)" fill="#00A76F"/>
<rect x="112.568" y="89.0088" width="20.9584" height="32.6269" rx="4" transform="rotate(-57.2648 112.568 89.0088)" fill="white"/>
<path d="M129.625 94.6539L136.609 83.6621L137.689 84.3482L130.705 95.34L129.625 94.6539Z" fill="#F4F6F8"/>
<path d="M131.932 96.1184L138.915 85.1265L139.995 85.8126L133.012 96.8044L131.932 96.1184Z" fill="#F4F6F8"/>
<path d="M116.636 87.7797L119.816 82.7748L120.993 83.523L117.813 88.5279L116.636 87.7797Z" fill="#C4CDD5"/>
<path d="M120.4 88.7936L127.383 77.8018L128.463 78.4878L121.479 89.4796L120.4 88.7936Z" fill="#C4CDD5"/>
<path d="M122.706 90.2578L129.69 79.266L130.77 79.9521L123.786 90.9439L122.706 90.2578Z" fill="#C4CDD5"/>
<path d="M125.013 91.7245L131.996 80.7327L133.076 81.4187L126.092 92.4105L125.013 91.7245Z" fill="#C4CDD5"/>
<path d="M127.399 93.8494L134.431 82.9103L135.506 83.6012L128.474 94.5403L127.399 93.8494Z" fill="#C4CDD5"/>
<path d="M141.616 89.8751L143.425 87.0288L146.271 88.8372L144.462 91.6835L141.616 89.8751Z" fill="#C4CDD5"/>
<path d="M112.199 70.3165L93.1291 70.522C92.4153 70.5295 91.8404 71.11 91.8398 71.8238V73.3996C91.8393 74.1063 91.2756 74.6838 90.5692 74.7014L76.809 75.0315C76.2089 75.0466 75.6763 74.6493 75.5196 74.0698L74.8731 71.6942C74.7181 71.1211 74.1949 70.7256 73.6012 70.7325L55.2207 70.9306C54.8395 70.9343 54.4792 71.1049 54.2347 71.3973C53.9902 71.6898 53.8862 72.0746 53.95 72.4504L61.3446 115.971C61.4506 116.595 61.9905 117.053 62.624 117.056L120.692 117.305C121.081 117.306 121.45 117.134 121.699 116.834C121.947 116.535 122.049 116.14 121.976 115.758L113.49 71.3741C113.372 70.7555 112.828 70.3101 112.199 70.3165Z" fill="url(#paint1_linear_654_5260)"/>
<g opacity="0.2">
<path d="M162.211 124.37C162.211 124.718 160.542 125 158.484 125C156.426 125 154.757 124.718 154.757 124.37C154.757 124.022 156.426 123.739 158.484 123.739C160.542 123.739 162.211 124.022 162.211 124.37Z" fill="#00A76F"/>
<path d="M164.623 110.16C164.623 110.356 163.682 110.515 162.522 110.515C161.361 110.515 160.42 110.356 160.42 110.16C160.42 109.964 161.361 109.805 162.522 109.805C163.682 109.805 164.623 109.964 164.623 110.16Z" fill="#00A76F"/>
<path d="M147.108 112.509C147.108 112.746 145.972 112.938 144.571 112.938C143.17 112.938 142.033 112.746 142.033 112.509C142.033 112.273 143.17 112.081 144.571 112.081C145.972 112.081 147.108 112.273 147.108 112.509Z" fill="#00A76F"/>
<path d="M51.8497 107.777C51.8497 107.93 50.9456 108.055 49.8303 108.055C48.7151 108.055 47.811 107.93 47.811 107.777C47.811 107.623 48.7151 107.499 49.8303 107.499C50.9456 107.499 51.8497 107.623 51.8497 107.777Z" fill="#00A76F"/>
<path d="M44.1149 108.56C44.1149 108.714 43.2108 108.838 42.0956 108.838C40.9803 108.838 40.0763 108.714 40.0763 108.56C40.0763 108.407 40.9803 108.283 42.0956 108.283C43.2108 108.283 44.1149 108.407 44.1149 108.56Z" fill="#00A76F"/>
<path d="M46.6264 110.794C46.6264 110.903 45.9839 110.991 45.1913 110.991C44.3988 110.991 43.7563 110.903 43.7563 110.794C43.7563 110.685 44.3988 110.597 45.1913 110.597C45.9839 110.597 46.6264 110.685 46.6264 110.794Z" fill="#00A76F"/>
<path d="M38.5986 110.597C38.5986 110.706 37.9561 110.794 37.1636 110.794C36.371 110.794 35.7285 110.706 35.7285 110.597C35.7285 110.488 36.371 110.4 37.1636 110.4C37.9561 110.4 38.5986 110.488 38.5986 110.597Z" fill="#00A76F"/>
</g>
<path d="M36.3728 110.149C36.2825 110.075 36.2169 109.976 36.1847 109.864C36.1529 109.748 36.2084 109.626 36.3167 109.573C36.4413 109.527 36.5659 109.611 36.6655 109.698C36.7652 109.785 36.8785 109.877 37.0031 109.856C36.8686 109.734 36.8081 109.551 36.8437 109.373C36.8488 109.337 36.8639 109.302 36.8873 109.274C36.9545 109.202 37.0766 109.233 37.1576 109.291C37.4067 109.47 37.4852 109.817 37.4864 110.131C37.4989 110.016 37.4989 109.9 37.4864 109.785C37.4798 109.667 37.532 109.554 37.626 109.482C37.6866 109.449 37.755 109.433 37.824 109.435C37.9398 109.418 38.0571 109.452 38.1467 109.527C38.2339 109.646 38.2288 109.809 38.1342 109.922C38.0388 110.029 37.9259 110.119 37.8004 110.189C37.7051 110.246 37.6238 110.324 37.5624 110.417C37.5549 110.429 37.549 110.443 37.545 110.456H36.82C36.6577 110.375 36.5073 110.271 36.3728 110.149Z" fill="#00A76F"/>
<path d="M49.0105 107.431C48.92 107.358 48.8543 107.258 48.8224 107.147C48.7904 107.031 48.8454 106.909 48.9532 106.856C49.0777 106.81 49.2023 106.894 49.302 106.981C49.4016 107.068 49.5137 107.163 49.642 107.144C49.5075 107.023 49.4465 106.84 49.4813 106.662C49.4869 106.626 49.5024 106.592 49.5262 106.564C49.5934 106.491 49.7155 106.523 49.7965 106.579C50.0519 106.759 50.1241 107.107 50.1254 107.421C50.1378 107.305 50.1378 107.189 50.1254 107.073C50.1141 106.957 50.1606 106.842 50.2499 106.767C50.3109 106.734 50.3791 106.719 50.448 106.721C50.5636 106.704 50.6806 106.737 50.7707 106.812C50.8582 106.931 50.8525 107.095 50.757 107.208C50.6622 107.315 50.5497 107.405 50.4243 107.474C50.329 107.531 50.2477 107.609 50.1864 107.701C50.1791 107.714 50.1733 107.728 50.169 107.742H49.4602C49.2967 107.659 49.1453 107.555 49.0105 107.431Z" fill="#00A76F"/>
<path d="M44.7989 110.149C44.7087 110.075 44.6428 109.975 44.6096 109.864C44.5778 109.748 44.6333 109.625 44.7416 109.573C44.8662 109.527 44.9907 109.611 45.0904 109.698C45.1901 109.785 45.3009 109.88 45.4305 109.862C45.2962 109.74 45.2353 109.557 45.2698 109.379C45.2753 109.343 45.2908 109.309 45.3146 109.281C45.3819 109.208 45.504 109.239 45.585 109.297C45.8403 109.476 45.9113 109.824 45.9138 110.138C45.9263 110.022 45.9263 109.906 45.9138 109.791C45.904 109.674 45.953 109.559 46.0446 109.485C46.1052 109.452 46.1736 109.435 46.2427 109.437C46.3584 109.421 46.4757 109.455 46.5653 109.53C46.6527 109.649 46.647 109.812 46.5516 109.925C46.4566 110.032 46.3442 110.122 46.219 110.191C46.1237 110.248 46.0425 110.326 45.9811 110.419C45.9736 110.432 45.9677 110.445 45.9637 110.459H45.2411C45.0806 110.376 44.9319 110.271 44.7989 110.149Z" fill="#00A76F"/>
<g opacity="0.08">
<path d="M37.889 36.2513C37.889 37.7394 36.6826 38.9458 35.1945 38.9458C33.7064 38.9458 32.5 37.7394 32.5 36.2513C32.5 34.7632 33.7064 33.5568 35.1945 33.5568C36.6826 33.5568 37.889 34.7632 37.889 36.2513Z" fill="#00A76F"/>
<path d="M167.455 57.7835C167.455 59.2716 166.248 60.478 164.76 60.478C163.272 60.478 162.066 59.2716 162.066 57.7835C162.066 56.2954 163.272 55.089 164.76 55.089C166.248 55.089 167.455 56.2954 167.455 57.7835Z" fill="#00A76F"/>
<path d="M119.019 27.6945C119.019 29.1826 117.813 30.389 116.324 30.389C114.836 30.389 113.63 29.1826 113.63 27.6945C113.63 26.2064 114.836 25 116.324 25C117.813 25 119.019 26.2064 119.019 27.6945Z" fill="#00A76F"/>
<path d="M45.0992 51.1165C45.0992 53.6104 43.0774 55.6322 40.5834 55.6322C38.0895 55.6322 36.0677 53.6104 36.0677 51.1165C36.0677 48.6225 38.0895 46.6007 40.5834 46.6007C43.0774 46.6007 45.0992 48.6225 45.0992 51.1165Z" fill="#00A76F"/>
</g>
<path fill-rule="evenodd" clip-rule="evenodd" d="M85.8459 87.4629C82.5229 87.4629 79.8291 90.1567 79.8291 93.4797C79.8291 96.8027 82.5229 99.4965 85.8459 99.4965C89.1689 99.4965 91.8627 96.8027 91.8627 93.4797C91.8627 90.1567 89.1689 87.4629 85.8459 87.4629V87.4629Z" fill="#007867"/>
<path opacity="0.72" fill-rule="evenodd" clip-rule="evenodd" d="M85.8452 88.1631C88.7817 88.1631 91.1622 90.5436 91.1622 93.48C91.1622 96.4165 88.7817 98.7969 85.8452 98.7969C82.9088 98.7969 80.5283 96.4165 80.5283 93.48C80.5309 90.5446 82.9099 88.1657 85.8452 88.1631Z" fill="#00A76F"/>
<path fill-rule="evenodd" clip-rule="evenodd" d="M83.3573 93.9188L83.0663 93.6349C83.0035 93.5774 82.9678 93.4971 82.9678 93.413C82.9678 93.329 83.0035 93.2486 83.0663 93.1912L85.6191 90.6977C85.678 90.6364 85.7603 90.6016 85.8464 90.6016C85.9326 90.6016 86.0148 90.6364 86.0737 90.6977L88.6265 93.189C88.6882 93.2471 88.723 93.3271 88.723 93.4108C88.723 93.4945 88.6882 93.5745 88.6265 93.6326L88.3355 93.9166C88.276 93.9768 88.1939 94.0108 88.1082 94.0108C88.0225 94.0108 87.9404 93.9768 87.8809 93.9166L86.3715 92.3637V96.0484C86.3721 96.13 86.3393 96.2084 86.2804 96.2663C86.2215 96.3242 86.1414 96.3568 86.0578 96.3568H85.6373C85.4628 96.3568 85.3213 96.2187 85.3213 96.0484V92.3682L83.8119 93.921C83.7521 93.9809 83.6699 94.0145 83.5841 94.0141C83.4984 94.0137 83.4165 93.9793 83.3573 93.9188Z" fill="#007867"/>
<path d="M42.0523 108.499C42.0523 108.499 44.8839 99.2159 41.6089 95.4975C39.1585 92.7158 36.3768 93.0484 35.1311 93.3922C34.4792 93.5663 33.9365 94.0176 33.6462 94.6267C33.2102 95.566 33.2887 97.0907 36.3631 98.8709C41.5092 101.851 41.8294 105.938 41.8294 105.938L42.0523 108.499Z" fill="#00A76F"/>
<path d="M42.1674 108.572C42.1674 108.572 38.85 101.826 37.9394 101.97C37.5071 102.041 37.3078 102.468 37.2169 102.894C37.1051 103.447 37.1682 104.021 37.3975 104.536C37.8684 105.62 39.1328 107.669 42.1674 108.572Z" fill="#00A76F"/>
<path d="M42.0686 108.572C42.0686 108.572 45.3847 101.826 46.2953 101.97C46.7288 102.041 46.9281 102.468 47.0178 102.894C47.1297 103.447 47.0665 104.021 46.8372 104.536C46.3663 105.62 45.1007 107.669 42.0686 108.572Z" fill="#00A76F"/>
<path fill-rule="evenodd" clip-rule="evenodd" d="M35.4765 94.6775C35.4937 94.6226 35.5521 94.5921 35.607 94.6093L35.5759 94.7087C35.607 94.6093 35.607 94.6093 35.607 94.6093L35.6076 94.6095L35.609 94.6099L35.6141 94.6115L35.6329 94.6178C35.6494 94.6233 35.6734 94.6316 35.7045 94.6428C35.7666 94.6652 35.8569 94.6994 35.9708 94.7467C36.1986 94.8414 36.521 94.989 36.9015 95.201C37.6623 95.6251 38.657 96.308 39.5927 97.3436C41.4677 99.4187 43.0957 102.898 42.1563 108.516C42.1468 108.573 42.0932 108.611 42.0364 108.602C41.9797 108.592 41.9414 108.538 41.9509 108.482C42.88 102.925 41.2692 99.5098 39.4382 97.4833C38.5209 96.4682 37.5457 95.7986 36.8001 95.383C36.4273 95.1753 36.1122 95.0311 35.8909 94.9391C35.7802 94.8931 35.693 94.8601 35.6338 94.8388C35.6042 94.8281 35.5816 94.8203 35.5665 94.8153L35.5497 94.8097L35.5457 94.8084L35.5448 94.8081C35.49 94.7909 35.4593 94.7324 35.4765 94.6775Z" fill="#007867"/>
<path fill-rule="evenodd" clip-rule="evenodd" d="M40.538 95.586C40.5701 95.6337 40.5576 95.6984 40.5099 95.7306L40.5096 95.7308L40.5077 95.7321L40.4994 95.738C40.4919 95.7433 40.4806 95.7516 40.4661 95.7626C40.4372 95.7847 40.3958 95.8179 40.3469 95.8613C40.249 95.9485 40.1225 96.076 40.0073 96.2377C39.7772 96.5608 39.5974 97.0118 39.7674 97.5526C39.7847 97.6075 39.7542 97.6659 39.6993 97.6832C39.6444 97.7005 39.5859 97.67 39.5687 97.6151C39.3725 96.9911 39.5845 96.4723 39.8377 96.1168C39.9642 95.9392 40.1022 95.8002 40.2084 95.7057C40.2616 95.6583 40.3072 95.6219 40.3397 95.597C40.356 95.5846 40.369 95.5751 40.3782 95.5685L40.3889 95.5609L40.392 95.5588L40.3929 95.5582L40.3933 95.5579C40.3933 95.5579 40.3934 95.5579 40.4496 95.6412L40.3933 95.5579C40.441 95.5258 40.5058 95.5383 40.538 95.586Z" fill="#007867"/>
<path fill-rule="evenodd" clip-rule="evenodd" d="M36.4872 96.4074L36.4882 96.4064L36.4931 96.4016C36.4977 96.3972 36.5048 96.3905 36.5144 96.3819C36.5335 96.3647 36.5622 96.34 36.5995 96.3114C36.6741 96.2541 36.782 96.1816 36.9145 96.1209C37.1789 95.9999 37.5355 95.9279 37.9276 96.1088C37.9798 96.1329 38.0417 96.1101 38.0658 96.0579C38.0899 96.0056 38.0671 95.9438 38.0149 95.9197C37.5512 95.7057 37.1286 95.7938 36.8278 95.9315C36.6776 96.0003 36.5563 96.0819 36.4726 96.1462C36.4306 96.1785 36.3977 96.2066 36.3751 96.227C36.3637 96.2372 36.3549 96.2454 36.3488 96.2513L36.3416 96.2583L36.3396 96.2603L36.3389 96.261L36.3386 96.2613C36.3386 96.2613 36.3386 96.2614 36.4129 96.3344L36.3386 96.2613C36.2983 96.3023 36.2988 96.3684 36.3398 96.4087C36.3809 96.449 36.4468 96.4484 36.4872 96.4074Z" fill="#007867"/>
<path fill-rule="evenodd" clip-rule="evenodd" d="M39.7597 100.023L39.7602 100.022L39.7624 100.021L39.7718 100.017C39.7802 100.013 39.7929 100.007 39.8093 99.9993C39.8421 99.9844 39.8897 99.964 39.9479 99.9417C40.0648 99.897 40.222 99.846 40.3871 99.8185C40.5534 99.7908 40.7189 99.7884 40.8572 99.8327C40.9906 99.8755 41.1026 99.9625 41.1698 100.127C41.1915 100.18 41.2523 100.206 41.3056 100.184C41.3589 100.162 41.3844 100.102 41.3627 100.048C41.2704 99.8225 41.1085 99.6944 40.9208 99.6343C40.7379 99.5757 40.535 99.5826 40.3528 99.613C40.1693 99.6436 39.998 99.6995 39.8735 99.7471C39.8109 99.7711 39.7596 99.7931 39.7237 99.8093C39.7057 99.8175 39.6915 99.8241 39.6817 99.8288L39.6704 99.8343L39.6672 99.8359L39.6663 99.8363L39.666 99.8365C39.666 99.8365 39.6659 99.8365 39.7128 99.9295L39.666 99.8365C39.6146 99.8624 39.5939 99.9251 39.6198 99.9765C39.6457 100.028 39.7084 100.048 39.7597 100.023Z" fill="#007867"/>
<path fill-rule="evenodd" clip-rule="evenodd" d="M37.9048 103.167C37.9522 103.135 38.0171 103.147 38.0497 103.194L37.964 103.253L37.8782 103.312C37.8455 103.265 37.8575 103.2 37.9048 103.167ZM37.964 103.253C37.8782 103.312 37.8782 103.312 37.8782 103.312L37.9176 103.369C37.9433 103.406 37.9811 103.461 38.0294 103.53C38.126 103.669 38.2647 103.867 38.4332 104.105C38.7703 104.582 39.2269 105.221 39.7046 105.867C40.1821 106.512 40.6816 107.166 41.1045 107.672C41.3158 107.926 41.5092 108.144 41.672 108.306C41.7534 108.387 41.8284 108.456 41.8953 108.509C41.9602 108.56 42.0248 108.602 42.0846 108.621C42.1392 108.639 42.1981 108.61 42.2161 108.555C42.2341 108.5 42.2044 108.442 42.1498 108.424C42.1255 108.416 42.0841 108.392 42.0241 108.345C41.9661 108.299 41.8974 108.237 41.8192 108.159C41.6629 108.003 41.474 107.79 41.2644 107.539C40.8455 107.037 40.3488 106.387 39.8721 105.743C39.3955 105.099 38.9399 104.461 38.6034 103.985C38.4351 103.747 38.2967 103.549 38.2003 103.411C38.1521 103.342 38.1144 103.287 38.0888 103.251L38.0497 103.194C38.0497 103.194 38.0497 103.194 37.964 103.253Z" fill="#007867"/>
<path fill-rule="evenodd" clip-rule="evenodd" d="M37.5396 104.042C37.5396 103.984 37.5862 103.937 37.6437 103.937H38.4559C38.5135 103.937 38.5601 103.984 38.5601 104.042C38.5601 104.099 38.5135 104.146 38.4559 104.146H37.6437C37.5862 104.146 37.5396 104.099 37.5396 104.042Z" fill="#007867"/>
<path fill-rule="evenodd" clip-rule="evenodd" d="M38.5126 105.883C38.515 105.826 38.5636 105.781 38.6211 105.784L39.8955 105.839C39.953 105.841 39.9975 105.89 39.9951 105.947C39.9926 106.005 39.944 106.049 39.8865 106.047L38.6122 105.992C38.5547 105.989 38.5101 105.941 38.5126 105.883Z" fill="#007867"/>
<path fill-rule="evenodd" clip-rule="evenodd" d="M39.4138 104.308C39.4701 104.32 39.5062 104.375 39.4945 104.432L39.3562 105.096C39.3445 105.152 39.2893 105.188 39.233 105.176C39.1767 105.165 39.1405 105.109 39.1523 105.053L39.2905 104.389C39.3023 104.333 39.3574 104.297 39.4138 104.308Z" fill="#007867"/>
<path fill-rule="evenodd" clip-rule="evenodd" d="M40.7509 106.326C40.8084 106.328 40.8531 106.376 40.8507 106.434L40.8258 107.037C40.8234 107.094 40.7749 107.139 40.7174 107.137C40.6599 107.134 40.6153 107.086 40.6176 107.028L40.6426 106.425C40.6449 106.368 40.6934 106.323 40.7509 106.326Z" fill="#007867"/>
<path fill-rule="evenodd" clip-rule="evenodd" d="M46.186 103.194C46.2187 103.147 46.2836 103.135 46.3309 103.167C46.3782 103.2 46.3901 103.265 46.3574 103.312L46.2717 103.253L46.186 103.194ZM46.186 103.194C46.186 103.194 46.186 103.194 46.2717 103.253C46.3574 103.312 46.3574 103.312 46.3574 103.312L46.3179 103.369C46.2921 103.406 46.2543 103.461 46.2059 103.53C46.1091 103.669 45.9701 103.867 45.8013 104.105C45.4636 104.582 45.0063 105.221 44.5281 105.867C44.05 106.512 43.5501 107.166 43.1275 107.672C42.9163 107.926 42.7231 108.144 42.5607 108.306C42.4796 108.387 42.4048 108.456 42.3383 108.508C42.2737 108.56 42.2095 108.602 42.1501 108.621C42.0955 108.639 42.0365 108.61 42.0184 108.555C42.0002 108.501 42.0297 108.442 42.0843 108.424C42.1082 108.416 42.1493 108.392 42.2091 108.345C42.2669 108.299 42.3354 108.237 42.4134 108.159C42.5693 108.003 42.758 107.79 42.9675 107.539C43.3863 107.037 43.8834 106.387 44.3607 105.743C44.8377 105.099 45.2941 104.461 45.6312 103.985C45.7998 103.747 45.9385 103.549 46.0351 103.411C46.0834 103.342 46.1211 103.287 46.1468 103.25L46.186 103.194Z" fill="#007867"/>
<path fill-rule="evenodd" clip-rule="evenodd" d="M45.6751 104.042C45.6751 103.984 45.7218 103.937 45.7793 103.937H46.5915C46.649 103.937 46.6957 103.984 46.6957 104.042C46.6957 104.099 46.649 104.146 46.5915 104.146H45.7793C45.7218 104.146 45.6751 104.099 45.6751 104.042Z" fill="#007867"/>
<path fill-rule="evenodd" clip-rule="evenodd" d="M45.7226 105.883C45.7251 105.941 45.6805 105.989 45.623 105.992L44.3486 106.047C44.2912 106.049 44.2426 106.005 44.2401 105.947C44.2376 105.89 44.2822 105.841 44.3397 105.839L45.6141 105.784C45.6715 105.781 45.7201 105.826 45.7226 105.883Z" fill="#007867"/>
<path fill-rule="evenodd" clip-rule="evenodd" d="M44.8214 104.308C44.8777 104.297 44.9329 104.333 44.9446 104.389L45.0829 105.053C45.0946 105.109 45.0585 105.165 45.0021 105.176C44.9458 105.188 44.8906 105.152 44.8789 105.096L44.7406 104.432C44.7289 104.375 44.7651 104.32 44.8214 104.308Z" fill="#007867"/>
<path fill-rule="evenodd" clip-rule="evenodd" d="M43.4843 106.326C43.5418 106.323 43.5903 106.368 43.5927 106.425L43.6176 107.028C43.62 107.086 43.5753 107.134 43.5179 107.137C43.4604 107.139 43.4119 107.094 43.4095 107.037L43.3846 106.434C43.3822 106.376 43.4269 106.328 43.4843 106.326Z" fill="#007867"/>
<defs>
<linearGradient id="paint0_linear_654_5260" x1="100" y1="150" x2="177.883" y2="10.5074" gradientUnits="userSpaceOnUse">
<stop/>
<stop offset="1" stop-opacity="0.01"/>
</linearGradient>
<linearGradient id="paint1_linear_654_5260" x1="74.4286" y1="57.1828" x2="54.2464" y2="116.777" gradientUnits="userSpaceOnUse">
<stop stop-color="#00A66F"/>
<stop offset="1" stop-color="#007867"/>
</linearGradient>
</defs>
</svg>
